{"title":"Howzat Kerry Packers War 2012 BRRIP 1080P Parts 1 And 2","uid":7916346,"size":4299042602,"categoryP":"video","categoryS":"hd___movies","magnet":"?xt=urn:btih:3627fd741daae9fd762dea1f3c4ef5de0bcc9556&amp;dn=Howzat+Kerry+Packers+War+2012+BRRIP+1080P+Parts+1+And+2&amp;tr=udp%3A%2F%2Ftracker.openbittorrent.com%3A80&amp;tr=udp%3A%2F%2Fopen.demonii.com%3A1337&amp;tr=udp%3A%2F%2Ftracker.coppersurfer.tk%3A6969&amp;tr=udp%3A%2F%2Fexodus.desync.com%3A6969","seeders":1,"leechers":0,"uploader":"jmanwf","files":3,"time":1355379408,"description":"INCLUDES DIRECTORS COMMENTARY\n\n\nRUNTIME: 2 Hours 43 Minutes\n\n\n\nFormat                                   : Matroska\nFormat version                           : Version 2\nFile size                                : 3.98 GiB\nDuration                                 : 2h 43mn\nOverall bit rate                         : 3 490 Kbps\nWriting application                      : HandBrake 0.9.8\nWriting library                          : libmkv 0.6.5\n\nVideo\nID                                       : 1\nFormat                                   : AVC\nFormat/Info                              : Advanced Video Codec\nFormat profile                           : &lt;a class=&quot;__cf_email__&quot; href=&quot;/cdn-cgi/l/email-protection&quot; data-cfemail=&quot;1e537f77705e522a302e&quot;&gt;[email&amp;#160;protected]&lt;/a&gt;&lt;script cf-hash='f9e31' type=&quot;text/javascript&quot;&gt;\n/* &lt;![CDATA[ */!function(){try{var t=&quot;currentScript&quot;in document?document.currentScript:function(){for(var t=document.getElementsByTagName(&quot;script&quot;),e=t.length;e--;)if(t[e].getAttribute(&quot;cf-hash&quot;))return t[e]}();if(t&amp;&amp;t.previousSibling){var e,r,n,i,c=t.previousSibling,a=c.getAttribute(&quot;data-cfemail&quot;);if(a){for(e=&quot;&quot;,r=parseInt(a.substr(0,2),16),n=2;a.length-n;n+=2)i=parseInt(a.substr(n,2),16)^r,e+=String.fromCharCode(i);e=document.createTextNode(e),c.parentNode.replaceChild(e,c)}}}catch(u){}}();/* ]]&gt; */&lt;/script&gt;\nFormat settings, CABAC                   : Yes\nFormat settings, ReFrames                : 4 frames\nCodec ID                                 : V_MPEG4/ISO/AVC\nDuration                                 : 2h 43mn\nBit rate                                 : 2 333 Kbps\nWidth                                    : 1 920 pixels\nHeight                                   : 1 080 pixels\nDisplay aspect ratio                     : 16:9\nFrame rate mode                          : Constant\nFrame rate                               : 25.000 fps\nColor space                              : YUV\nChroma subsampling                       : 4:2:0\nBit depth                                : 8 bits\nScan type                                : Progressive\nBits/(Pixel*Frame)                       : 0.045\nStream size                              : 2.66 GiB (67%)\nWriting library                          : x264 core 120\nEncoding settings                        : cabac=1 / ref=1 / deblock=1:0:0 / \nLanguage                                 : English\nDefault                                  : Yes\nForced                                   : No\nColor primaries                          : BT.709\nTransfer characteristics                 : BT.709\nMatrix coefficients                      : BT.709\n\nAudio #1\nID                                       : 2\nFormat                                   : AC-3\nFormat/Info                              : Audio Coding 3\nMode extension                           : CM (complete main)\nFormat settings, Endianness              : Big\nCodec ID                                 : A_AC3\nDuration                                 : 2h 43mn\nBit rate mode                            : Constant\nBit rate                                 : 640 Kbps\nChannel(s)                               : 6 channels\nChannel positions                        : Front: L C R, Side: L R, LFE\nSampling rate                            : 48.0 KHz\nBit depth                                : 16 bits\nCompression mode                         : Lossy\nStream size                              : 748 MiB (18%)\nLanguage                                 : English\nDefault                                  : Yes\nForced                                   : No\n &lt;a href=&quot;\nhttp://s19.postimage.org/6fchzh8pf/image.jpg&quot; rel=&quot;nofollow&quot; target=&quot;_NEW&quot;&gt;\nhttp://s19.postimage.org/6fchzh8pf/image.jpg&lt;/a&gt;\n &lt;a href=&quot;\nhttp://s19.postimage.org/kn26o4leb/image.jpg&quot; rel=&quot;nofollow&quot; target=&quot;_NEW&quot;&gt;\nhttp://s19.postimage.org/kn26o4leb/image.jpg&lt;/a&gt;\n &lt;a href=&quot;\nhttp://s19.postimage.org/kn26o4leb/image.jpg&quot; rel=&quot;nofollow&quot; target=&quot;_NEW&quot;&gt;\nhttp://s19.postimage.org/kn26o4leb/image.jpg&lt;/a&gt;\n &lt;a href=&quot;\nhttp://s19.postimage.org/mb1c2rz9v/image.jpg&quot; rel=&quot;nofollow&quot; target=&quot;_NEW&quot;&gt;\nhttp://s19.postimage.org/mb1c2rz9v/image.jpg&lt;/a&gt;\n\n\nThe Story of how world series cricket got started","torrent":{"xt":"urn:btih:3627fd741daae9fd762dea1f3c4ef5de0bcc9556","amp;dn":"Howzat+Kerry+Packers+War+2012+BRRIP+1080P+Parts+1+And+2","amp;tr":["udp%3A%2F%2Ftracker.openbittorrent.com%3A80","udp%3A%2F%2Fopen.demonii.com%3A1337","udp%3A%2F%2Ftracker.coppersurfer.tk%3A6969","udp%3A%2F%2Fexodus.desync.com%3A6969"],"infoHash":"3627fd741daae9fd762dea1f3c4ef5de0bcc9556","infoHashBuffer":{"type":"Buffer","data":[54,39,253,116,29,170,233,253,118,45,234,31,60,78,245,222,11,204,149,86]},"announce":[],"urlList":[]}}